<svg xmlns="http://www.w3.org/2000/svg" xmlns:xlink="http://www.w3.org/1999/xlink" width="500" zoomAndPan="magnify" viewBox="0 0 375 374.999991" height="500" preserveAspectRatio="xMidYMid meet" version="1.0"><defs><clipPath id="5235708e61"><path d="M 27.992188 0 L 252.992188 0 L 252.992188 375 L 27.992188 375 Z M 27.992188 0 " clip-rule="nonzero"/></clipPath><clipPath id="eafd2b91d4"><path d="M 217.101562 142.679688 L 324.351562 142.679688 L 324.351562 214.679688 L 217.101562 214.679688 Z M 217.101562 142.679688 " clip-rule="nonzero"/></clipPath><clipPath id="1895dd6c91"><path d="M 204.613281 143.429688 L 236.863281 143.429688 L 236.863281 175.679688 L 204.613281 175.679688 Z M 204.613281 143.429688 " clip-rule="nonzero"/></clipPath></defs><g clip-path="url(#5235708e61)"><path fill="#ffffff" d="M 153.148438 0 L 33.148438 37.5 C 30.160156 38.996094 27.992188 42.011719 27.992188 45 L 27.992188 337.5 C 27.992188 341.25 30.335938 344.238281 34.085938 345 L 154.085938 375 L 155.492188 375 C 156.984375 375 158.449219 374.355469 159.945312 373.59375 C 161.4375 372.097656 162.992188 369.753906 162.992188 367.5 L 162.992188 7.5 C 162.992188 5.246094 161.4375 2.902344 159.945312 1.40625 C 157.6875 -0.0898438 155.402344 0 153.148438 0 Z M 177.992188 30 L 177.992188 45 L 237.992188 45 L 237.992188 330 L 177.992188 330 L 177.992188 345 L 245.492188 345 C 249.621094 345 252.992188 341.628906 252.992188 337.5 L 252.992188 37.5 C 252.992188 33.371094 249.621094 30 245.492188 30 Z M 132.992188 180 C 137.503906 180 140.492188 185.242188 140.492188 191.25 C 140.492188 197.253906 137.503906 202.5 132.992188 202.5 C 128.480469 202.5 125.492188 197.253906 125.492188 191.25 C 125.492188 185.242188 128.480469 180 132.992188 180 Z M 132.992188 180 " fill-opacity="1" fill-rule="nonzero"/></g><g clip-path="url(#eafd2b91d4)"><path fill="#ffffff" d="M 324.664062 181.796875 L 324.074219 181.449219 L 292.324219 162.589844 L 272.621094 150.886719 L 272.53125 170.097656 C 268.144531 170.996094 263.601562 171.472656 258.945312 171.472656 C 254.71875 171.472656 250.59375 171.066406 246.582031 170.320312 C 230.011719 167.238281 215.589844 158.089844 205.734375 145.265625 C 205.0625 144.46875 204.539062 143.75 204.164062 143.125 C 204.074219 143.003906 203.984375 142.875 203.894531 142.75 C 208.144531 155.714844 215.703125 167.1875 225.605469 176.15625 C 237.96875 187.347656 253.957031 194.621094 271.605469 196.074219 C 271.890625 196.125 272.15625 196.183594 272.445312 196.234375 L 272.359375 214.6875 L 324.664062 181.796875 " fill-opacity="1" fill-rule="nonzero"/></g><g clip-path="url(#1895dd6c91)"><path fill="#ffffff" d="M 236.863281 159.554688 C 236.863281 160.085938 236.835938 160.613281 236.785156 161.136719 C 236.734375 161.664062 236.65625 162.183594 236.554688 162.703125 C 236.449219 163.21875 236.320312 163.730469 236.167969 164.238281 C 236.015625 164.742188 235.835938 165.238281 235.636719 165.726562 C 235.433594 166.214844 235.207031 166.691406 234.960938 167.15625 C 234.710938 167.625 234.4375 168.074219 234.144531 168.515625 C 233.851562 168.953125 233.539062 169.378906 233.203125 169.785156 C 232.867188 170.195312 232.515625 170.585938 232.140625 170.957031 C 231.765625 171.332031 231.375 171.6875 230.96875 172.019531 C 230.558594 172.355469 230.136719 172.671875 229.695312 172.964844 C 229.257812 173.257812 228.804688 173.527344 228.339844 173.777344 C 227.875 174.027344 227.398438 174.253906 226.910156 174.453125 C 226.421875 174.65625 225.925781 174.832031 225.417969 174.988281 C 224.914062 175.140625 224.402344 175.269531 223.882812 175.371094 C 223.367188 175.476562 222.84375 175.550781 222.320312 175.605469 C 221.792969 175.65625 221.265625 175.679688 220.738281 175.679688 C 220.210938 175.679688 219.683594 175.65625 219.15625 175.605469 C 218.632812 175.550781 218.109375 175.476562 217.59375 175.371094 C 217.074219 175.269531 216.5625 175.140625 216.058594 174.988281 C 215.550781 174.832031 215.054688 174.65625 214.566406 174.453125 C 214.078125 174.253906 213.601562 174.027344 213.136719 173.777344 C 212.671875 173.527344 212.21875 173.257812 211.78125 172.964844 C 211.339844 172.671875 210.917969 172.355469 210.507812 172.019531 C 210.101562 171.6875 209.710938 171.332031 209.335938 170.957031 C 208.960938 170.585938 208.609375 170.195312 208.273438 169.785156 C 207.9375 169.378906 207.625 168.953125 207.332031 168.515625 C 207.039062 168.074219 206.765625 167.625 206.515625 167.15625 C 206.269531 166.691406 206.042969 166.214844 205.839844 165.726562 C 205.636719 165.238281 205.460938 164.742188 205.308594 164.238281 C 205.152344 163.730469 205.027344 163.21875 204.921875 162.703125 C 204.820312 162.183594 204.742188 161.664062 204.691406 161.136719 C 204.640625 160.613281 204.613281 160.085938 204.613281 159.554688 C 204.613281 159.027344 204.640625 158.5 204.691406 157.976562 C 204.742188 157.449219 204.820312 156.929688 204.921875 156.410156 C 205.027344 155.894531 205.152344 155.382812 205.308594 154.875 C 205.460938 154.371094 205.636719 153.875 205.839844 153.386719 C 206.042969 152.898438 206.269531 152.421875 206.515625 151.957031 C 206.765625 151.488281 207.039062 151.039062 207.332031 150.597656 C 207.625 150.160156 207.9375 149.734375 208.273438 149.328125 C 208.609375 148.917969 208.960938 148.527344 209.335938 148.15625 C 209.710938 147.78125 210.101562 147.425781 210.507812 147.089844 C 210.917969 146.757812 211.339844 146.441406 211.78125 146.148438 C 212.21875 145.855469 212.671875 145.585938 213.136719 145.335938 C 213.601562 145.085938 214.078125 144.859375 214.566406 144.660156 C 215.054688 144.457031 215.550781 144.277344 216.058594 144.125 C 216.5625 143.972656 217.074219 143.84375 217.59375 143.742188 C 218.109375 143.636719 218.632812 143.5625 219.15625 143.507812 C 219.683594 143.457031 220.210938 143.429688 220.738281 143.429688 C 221.265625 143.429688 221.792969 143.457031 222.320312 143.507812 C 222.84375 143.5625 223.367188 143.636719 223.882812 143.742188 C 224.402344 143.84375 224.914062 143.972656 225.417969 144.125 C 225.925781 144.277344 226.421875 144.457031 226.910156 144.660156 C 227.398438 144.859375 227.875 145.085938 228.339844 145.335938 C 228.804688 145.585938 229.257812 145.855469 229.695312 146.148438 C 230.136719 146.441406 230.558594 146.757812 230.96875 147.089844 C 231.375 147.425781 231.765625 147.78125 232.140625 148.15625 C 232.515625 148.527344 232.867188 148.917969 233.203125 149.328125 C 233.539062 149.734375 233.851562 150.160156 234.144531 150.597656 C 234.4375 151.039062 234.710938 151.488281 234.960938 151.957031 C 235.207031 152.421875 235.433594 152.898438 235.636719 153.386719 C 235.835938 153.875 236.015625 154.371094 236.167969 154.875 C 236.320312 155.382812 236.449219 155.894531 236.554688 156.410156 C 236.65625 156.929688 236.734375 157.449219 236.785156 157.976562 C 236.835938 158.5 236.863281 159.027344 236.863281 159.554688 Z M 236.863281 159.554688 " fill-opacity="1" fill-rule="nonzero"/></g></svg>