<svg xmlns="http://www.w3.org/2000/svg" xmlns:xlink="http://www.w3.org/1999/xlink" width="1122" zoomAndPan="magnify" viewBox="0 0 841.92 425.249996" height="566" preserveAspectRatio="xMidYMid meet" version="1.0"><defs><clipPath id="b9deaadd91"><path d="M 12.355469 54.910156 L 416.605469 54.910156 L 416.605469 326.308594 L 12.355469 326.308594 Z M 12.355469 54.910156 " clip-rule="nonzero"/></clipPath><clipPath id="b100198f56"><path d="M 100.015625 330.507812 L 139.871094 330.507812 L 139.871094 369.414062 L 100.015625 369.414062 Z M 100.015625 330.507812 " clip-rule="nonzero"/></clipPath><clipPath id="5fa47f69bc"><path d="M 130 330.507812 L 299 330.507812 L 299 341.894531 L 130 341.894531 Z M 130 330.507812 " clip-rule="nonzero"/></clipPath><clipPath id="2438ffbcab"><path d="M 289.992188 330.507812 L 328.898438 330.507812 L 328.898438 369.414062 L 289.992188 369.414062 Z M 289.992188 330.507812 " clip-rule="nonzero"/></clipPath><clipPath id="ab6098286e"><path d="M 395 156.4375 L 746 156.4375 L 746 369.003906 L 395 369.003906 Z M 395 156.4375 " clip-rule="nonzero"/></clipPath><clipPath id="e5c7780ef4"><path d="M 757.535156 237.304688 L 829.65625 237.304688 L 829.65625 370.160156 L 757.535156 370.160156 Z M 757.535156 237.304688 " clip-rule="nonzero"/></clipPath></defs><g clip-path="url(#b9deaadd91)"><path fill="#ffffff" d="M 412.070312 326.3125 L 16.898438 326.3125 C 16.609375 326.3125 16.328125 326.285156 16.046875 326.230469 C 15.761719 326.171875 15.492188 326.089844 15.226562 325.980469 C 14.960938 325.871094 14.707031 325.734375 14.46875 325.578125 C 14.230469 325.417969 14.011719 325.238281 13.808594 325.035156 C 13.605469 324.832031 13.425781 324.609375 13.265625 324.371094 C 13.105469 324.132812 12.972656 323.882812 12.863281 323.617188 C 12.75 323.351562 12.667969 323.078125 12.613281 322.796875 C 12.558594 322.515625 12.527344 322.234375 12.527344 321.945312 L 12.527344 59.277344 C 12.527344 58.988281 12.558594 58.703125 12.613281 58.421875 C 12.667969 58.140625 12.75 57.871094 12.863281 57.605469 C 12.972656 57.339844 13.105469 57.089844 13.265625 56.847656 C 13.425781 56.609375 13.605469 56.390625 13.808594 56.1875 C 14.011719 55.984375 14.230469 55.804688 14.46875 55.644531 C 14.707031 55.484375 14.960938 55.351562 15.226562 55.242188 C 15.492188 55.132812 15.761719 55.046875 16.046875 54.992188 C 16.328125 54.9375 16.609375 54.910156 16.898438 54.910156 L 412.070312 54.910156 C 412.355469 54.910156 412.640625 54.9375 412.921875 54.992188 C 413.203125 55.046875 413.476562 55.132812 413.742188 55.242188 C 414.007812 55.351562 414.257812 55.484375 414.496094 55.644531 C 414.734375 55.804688 414.957031 55.984375 415.160156 56.1875 C 415.363281 56.390625 415.542969 56.609375 415.703125 56.847656 C 415.859375 57.089844 415.996094 57.339844 416.105469 57.605469 C 416.214844 57.871094 416.296875 58.140625 416.355469 58.421875 C 416.410156 58.703125 416.4375 58.988281 416.4375 59.277344 L 416.4375 321.945312 C 416.4375 322.234375 416.410156 322.515625 416.355469 322.796875 C 416.296875 323.078125 416.214844 323.351562 416.105469 323.617188 C 415.996094 323.882812 415.859375 324.132812 415.703125 324.371094 C 415.542969 324.609375 415.363281 324.832031 415.160156 325.035156 C 414.957031 325.238281 414.734375 325.417969 414.496094 325.578125 C 414.257812 325.734375 414.007812 325.871094 413.742188 325.980469 C 413.476562 326.089844 413.203125 326.171875 412.921875 326.230469 C 412.640625 326.285156 412.355469 326.3125 412.070312 326.3125 Z M 21.265625 317.578125 L 407.703125 317.578125 L 407.703125 63.640625 L 21.265625 63.640625 Z M 21.265625 317.578125 " fill-opacity="1" fill-rule="nonzero"/></g><g clip-path="url(#b100198f56)"><path fill="#ffffff" d="M 139.871094 341.472656 C 124.457031 341.472656 111.933594 353.996094 111.933594 369.414062 L 100.015625 369.414062 C 100.015625 347.398438 117.859375 329.558594 139.871094 329.558594 Z M 139.871094 341.472656 " fill-opacity="1" fill-rule="nonzero"/></g><g clip-path="url(#5fa47f69bc)"><path fill="#ffffff" d="M 292.847656 330.507812 L 136.453125 330.507812 C 133.371094 330.507812 130.867188 333.054688 130.867188 336.199219 C 130.867188 339.34375 133.371094 341.894531 136.453125 341.894531 L 292.847656 341.894531 C 295.929688 341.894531 298.429688 339.34375 298.429688 336.199219 C 298.429688 333.054688 295.929688 330.507812 292.847656 330.507812 Z M 292.847656 330.507812 " fill-opacity="1" fill-rule="nonzero"/></g><g clip-path="url(#2438ffbcab)"><path fill="#ffffff" d="M 289.992188 341.472656 C 305.410156 341.472656 317.933594 353.996094 317.933594 369.414062 L 329.847656 369.414062 C 329.847656 347.398438 312.007812 329.558594 289.992188 329.558594 Z M 289.992188 341.472656 " fill-opacity="1" fill-rule="nonzero"/></g><g clip-path="url(#ab6098286e)"><path fill="#ffffff" d="M 436.410156 156.4375 C 430.960938 156.4375 426.574219 160.722656 426.574219 166.039062 L 426.574219 341.65625 C 426.574219 346.714844 425.859375 350.832031 430.476562 351.226562 L 398.144531 351.226562 C 394.320312 351.226562 396.277344 354.199219 396.277344 357.894531 L 396.277344 362.339844 C 396.277344 366.03125 399.355469 369.003906 403.183594 369.003906 L 738.136719 369.003906 C 741.964844 369.003906 745.042969 366.03125 745.042969 362.339844 L 745.042969 357.894531 C 745.042969 354.199219 747 351.226562 743.175781 351.226562 L 710.84375 351.226562 C 715.460938 350.832031 714.746094 346.714844 714.746094 341.65625 L 714.746094 166.039062 C 714.746094 160.722656 710.359375 156.4375 704.910156 156.4375 Z M 521.402344 158.765625 C 522.800781 158.765625 523.933594 159.875 523.933594 161.238281 C 523.933594 162.605469 522.800781 163.710938 521.402344 163.710938 C 520.003906 163.710938 518.871094 162.605469 518.871094 161.238281 C 518.871094 159.875 520.003906 158.765625 521.402344 158.765625 Z M 436.171875 166.058594 L 705.148438 166.058594 L 705.148438 341.636719 L 436.171875 341.636719 Z M 526.933594 351.257812 L 614.386719 351.257812 C 614.257812 353.117188 612.960938 354.566406 611.367188 354.566406 L 529.953125 354.566406 C 528.359375 354.566406 527.0625 353.117188 526.933594 351.257812 Z M 704.503906 356.515625 C 706.5625 356.515625 708.234375 358.128906 708.234375 360.117188 C 708.234375 362.105469 706.5625 363.714844 704.503906 363.714844 C 702.445312 363.714844 700.773438 362.105469 700.773438 360.117188 C 700.773438 358.128906 702.445312 356.515625 704.503906 356.515625 Z M 716.265625 356.515625 C 718.324219 356.515625 719.996094 358.128906 719.996094 360.117188 C 719.996094 362.105469 718.324219 363.714844 716.265625 363.714844 C 714.207031 363.714844 712.535156 362.105469 712.535156 360.117188 C 712.535156 358.128906 714.207031 356.515625 716.265625 356.515625 Z M 728.027344 356.515625 C 730.085938 356.515625 731.757812 358.128906 731.757812 360.117188 C 731.757812 362.105469 730.085938 363.714844 728.027344 363.714844 C 725.96875 363.714844 724.296875 362.105469 724.296875 360.117188 C 724.296875 358.128906 725.96875 356.515625 728.027344 356.515625 Z M 411.160156 358.902344 L 430.726562 358.902344 C 431.683594 358.902344 432.453125 359.441406 432.453125 360.117188 C 432.453125 360.789062 431.683594 361.332031 430.726562 361.332031 L 411.160156 361.332031 C 410.203125 361.332031 409.433594 360.789062 409.433594 360.117188 C 409.433594 359.441406 410.203125 358.902344 411.160156 358.902344 Z M 411.160156 358.902344 " fill-opacity="1" fill-rule="nonzero"/></g><g clip-path="url(#e5c7780ef4)"><path fill="#ffffff" d="M 823.535156 237.40625 C 823.671875 237.40625 823.8125 237.414062 823.953125 237.421875 C 824.214844 237.441406 824.472656 237.476562 824.730469 237.53125 C 825.0625 237.601562 825.382812 237.695312 825.699219 237.820312 C 826.035156 237.953125 826.355469 238.117188 826.664062 238.308594 C 826.976562 238.503906 827.273438 238.726562 827.542969 238.976562 C 827.851562 239.257812 828.128906 239.574219 828.367188 239.910156 C 828.59375 240.230469 828.789062 240.570312 828.949219 240.925781 C 829.109375 241.28125 829.234375 241.652344 829.320312 242.03125 C 829.378906 242.296875 829.421875 242.570312 829.445312 242.84375 C 829.460938 243 829.464844 243.160156 829.46875 243.316406 C 829.65625 283.59375 829.65625 323.867188 829.46875 364.144531 C 829.464844 364.300781 829.460938 364.460938 829.445312 364.617188 C 829.421875 364.890625 829.378906 365.164062 829.320312 365.429688 C 829.242188 365.773438 829.132812 366.113281 828.992188 366.4375 C 828.839844 366.796875 828.652344 367.140625 828.429688 367.460938 C 828.207031 367.785156 827.953125 368.089844 827.671875 368.363281 C 827.390625 368.636719 827.082031 368.882812 826.753906 369.097656 C 826.46875 369.285156 826.164062 369.445312 825.847656 369.578125 C 825.523438 369.71875 825.183594 369.828125 824.839844 369.90625 C 824.574219 369.96875 824.300781 370.007812 824.027344 370.03125 C 823.871094 370.046875 823.710938 370.054688 823.550781 370.054688 C 803.585938 370.148438 783.621094 370.148438 763.65625 370.054688 C 763.5 370.054688 763.339844 370.046875 763.179688 370.03125 C 762.910156 370.007812 762.636719 369.96875 762.367188 369.90625 C 762.023438 369.828125 761.6875 369.71875 761.359375 369.578125 C 760.980469 369.417969 760.617188 369.214844 760.277344 368.976562 C 759.957031 368.75 759.65625 368.496094 759.386719 368.210938 C 759.121094 367.933594 758.886719 367.632812 758.679688 367.3125 C 758.488281 367.015625 758.324219 366.699219 758.1875 366.371094 C 758.058594 366.054688 757.953125 365.726562 757.882812 365.394531 C 757.820312 365.121094 757.78125 364.839844 757.757812 364.5625 C 757.746094 364.421875 757.742188 364.285156 757.742188 364.144531 C 757.535156 323.871094 757.535156 283.59375 757.742188 243.320312 C 757.742188 243.179688 757.746094 243.039062 757.757812 242.902344 C 757.78125 242.621094 757.820312 242.34375 757.882812 242.070312 C 757.960938 241.71875 758.070312 241.371094 758.210938 241.042969 C 758.355469 240.699219 758.53125 240.371094 758.738281 240.058594 C 758.949219 239.742188 759.191406 239.445312 759.460938 239.175781 C 759.726562 238.90625 760.019531 238.660156 760.335938 238.445312 C 760.648438 238.230469 760.980469 238.046875 761.328125 237.898438 C 761.675781 237.746094 762.035156 237.628906 762.40625 237.546875 C 762.671875 237.488281 762.945312 237.449219 763.21875 237.425781 C 763.363281 237.414062 763.511719 237.410156 763.65625 237.40625 C 783.617188 237.3125 803.574219 237.375 823.535156 237.40625 Z M 795.457031 358.59375 L 791.738281 358.59375 C 790.273438 358.59375 789.085938 359.78125 789.085938 361.242188 L 789.085938 364.960938 C 789.085938 366.421875 790.273438 367.605469 791.738281 367.605469 L 795.457031 367.605469 C 796.921875 367.605469 798.109375 366.421875 798.109375 364.960938 L 798.109375 361.242188 C 798.109375 359.78125 796.921875 358.59375 795.457031 358.59375 Z M 794.761719 360.28125 C 795.675781 360.28125 796.417969 361.023438 796.417969 361.9375 L 796.417969 364.261719 C 796.417969 365.175781 795.675781 365.917969 794.761719 365.917969 L 792.433594 365.917969 C 791.519531 365.917969 790.777344 365.175781 790.777344 364.261719 L 790.777344 361.9375 C 790.777344 361.023438 791.519531 360.28125 792.433594 360.28125 Z M 827.375 246.613281 L 759.847656 246.613281 C 759.792969 283.1875 759.671875 319.753906 759.816406 356.328125 L 827.378906 356.328125 C 827.449219 319.757812 827.535156 283.1875 827.378906 246.613281 Z M 805.414062 240.953125 L 781.78125 240.953125 C 781.503906 240.953125 781.277344 241.179688 781.277344 241.457031 L 781.277344 242.46875 C 781.277344 242.746094 781.503906 242.972656 781.78125 242.972656 L 805.414062 242.972656 C 805.691406 242.972656 805.917969 242.746094 805.917969 242.46875 L 805.917969 241.457031 C 805.917969 241.179688 805.691406 240.953125 805.414062 240.953125 Z M 805.414062 240.953125 " fill-opacity="1" fill-rule="evenodd"/></g></svg>