<svg xmlns="http://www.w3.org/2000/svg" xmlns:xlink="http://www.w3.org/1999/xlink" width="500" zoomAndPan="magnify" viewBox="0 0 375 374.999991" height="500" preserveAspectRatio="xMidYMid meet" version="1.0"><defs><clipPath id="8b8d3671ee"><path d="M 238 95 L 261 95 L 261 102 L 238 102 Z M 238 95 " clip-rule="nonzero"/></clipPath><clipPath id="9c9c6409e4"><path d="M 218.582031 99.59375 L 346.542969 5.472656 L 361.707031 26.089844 L 233.746094 120.210938 Z M 218.582031 99.59375 " clip-rule="nonzero"/></clipPath><clipPath id="b3952a14be"><path d="M 218.582031 99.59375 L 346.542969 5.472656 L 361.707031 26.089844 L 233.746094 120.210938 Z M 218.582031 99.59375 " clip-rule="nonzero"/></clipPath><clipPath id="e38a0ad2d0"><path d="M 256 86 L 274 86 L 274 98 L 256 98 Z M 256 86 " clip-rule="nonzero"/></clipPath><clipPath id="ee5c1bd5a8"><path d="M 218.582031 99.59375 L 346.542969 5.472656 L 361.707031 26.089844 L 233.746094 120.210938 Z M 218.582031 99.59375 " clip-rule="nonzero"/></clipPath><clipPath id="e6476d92eb"><path d="M 218.582031 99.59375 L 346.542969 5.472656 L 361.707031 26.089844 L 233.746094 120.210938 Z M 218.582031 99.59375 " clip-rule="nonzero"/></clipPath><clipPath id="786fc9c4b6"><path d="M 270 74 L 284 74 L 284 90 L 270 90 Z M 270 74 " clip-rule="nonzero"/></clipPath><clipPath id="80d854b9c4"><path d="M 218.582031 99.59375 L 346.542969 5.472656 L 361.707031 26.089844 L 233.746094 120.210938 Z M 218.582031 99.59375 " clip-rule="nonzero"/></clipPath><clipPath id="b17221525e"><path d="M 218.582031 99.59375 L 346.542969 5.472656 L 361.707031 26.089844 L 233.746094 120.210938 Z M 218.582031 99.59375 " clip-rule="nonzero"/></clipPath><clipPath id="1ecd232feb"><path d="M 280 60 L 293 60 L 293 78 L 280 78 Z M 280 60 " clip-rule="nonzero"/></clipPath><clipPath id="2463cfef77"><path d="M 218.582031 99.59375 L 346.542969 5.472656 L 361.707031 26.089844 L 233.746094 120.210938 Z M 218.582031 99.59375 " clip-rule="nonzero"/></clipPath><clipPath id="ab806e60c0"><path d="M 218.582031 99.59375 L 346.542969 5.472656 L 361.707031 26.089844 L 233.746094 120.210938 Z M 218.582031 99.59375 " clip-rule="nonzero"/></clipPath><clipPath id="be74d42e21"><path d="M 289 48 L 301 48 L 301 66 L 289 66 Z M 289 48 " clip-rule="nonzero"/></clipPath><clipPath id="0d3a654265"><path d="M 218.582031 99.59375 L 346.542969 5.472656 L 361.707031 26.089844 L 233.746094 120.210938 Z M 218.582031 99.59375 " clip-rule="nonzero"/></clipPath><clipPath id="0cdefb635f"><path d="M 218.582031 99.59375 L 346.542969 5.472656 L 361.707031 26.089844 L 233.746094 120.210938 Z M 218.582031 99.59375 " clip-rule="nonzero"/></clipPath><clipPath id="e003ff7d36"><path d="M 297 36 L 311 36 L 311 52 L 297 52 Z M 297 36 " clip-rule="nonzero"/></clipPath><clipPath id="54ac8ea873"><path d="M 218.582031 99.59375 L 346.542969 5.472656 L 361.707031 26.089844 L 233.746094 120.210938 Z M 218.582031 99.59375 " clip-rule="nonzero"/></clipPath><clipPath id="4e7471f529"><path d="M 218.582031 99.59375 L 346.542969 5.472656 L 361.707031 26.089844 L 233.746094 120.210938 Z M 218.582031 99.59375 " clip-rule="nonzero"/></clipPath><clipPath id="a5e116a655"><path d="M 308 28 L 325 28 L 325 40 L 308 40 Z M 308 28 " clip-rule="nonzero"/></clipPath><clipPath id="51daaf0a52"><path d="M 218.582031 99.59375 L 346.542969 5.472656 L 361.707031 26.089844 L 233.746094 120.210938 Z M 218.582031 99.59375 " clip-rule="nonzero"/></clipPath><clipPath id="677ac23f00"><path d="M 218.582031 99.59375 L 346.542969 5.472656 L 361.707031 26.089844 L 233.746094 120.210938 Z M 218.582031 99.59375 " clip-rule="nonzero"/></clipPath><clipPath id="a1a62d3187"><path d="M 320 24 L 343 24 L 343 31 L 320 31 Z M 320 24 " clip-rule="nonzero"/></clipPath><clipPath id="f1a24571a3"><path d="M 218.582031 99.59375 L 346.542969 5.472656 L 361.707031 26.089844 L 233.746094 120.210938 Z M 218.582031 99.59375 " clip-rule="nonzero"/></clipPath><clipPath id="12aad93457"><path d="M 218.582031 99.59375 L 346.542969 5.472656 L 361.707031 26.089844 L 233.746094 120.210938 Z M 218.582031 99.59375 " clip-rule="nonzero"/></clipPath><clipPath id="f1693fc9a0"><path d="M 242 98 L 255 98 L 255 101 L 242 101 Z M 242 98 " clip-rule="nonzero"/></clipPath><clipPath id="68f32d08d2"><path d="M 218.582031 99.59375 L 346.542969 5.472656 L 361.707031 26.089844 L 233.746094 120.210938 Z M 218.582031 99.59375 " clip-rule="nonzero"/></clipPath><clipPath id="1904486c7b"><path d="M 218.582031 99.59375 L 346.542969 5.472656 L 361.707031 26.089844 L 233.746094 120.210938 Z M 218.582031 99.59375 " clip-rule="nonzero"/></clipPath><clipPath id="246c8fb88a"><path d="M 259 90 L 270 90 L 270 97 L 259 97 Z M 259 90 " clip-rule="nonzero"/></clipPath><clipPath id="da1081dde5"><path d="M 218.582031 99.59375 L 346.542969 5.472656 L 361.707031 26.089844 L 233.746094 120.210938 Z M 218.582031 99.59375 " clip-rule="nonzero"/></clipPath><clipPath id="babca88c84"><path d="M 218.582031 99.59375 L 346.542969 5.472656 L 361.707031 26.089844 L 233.746094 120.210938 Z M 218.582031 99.59375 " clip-rule="nonzero"/></clipPath><clipPath id="7437b96deb"><path d="M 273 77 L 281 77 L 281 87 L 273 87 Z M 273 77 " clip-rule="nonzero"/></clipPath><clipPath id="83270101bc"><path d="M 218.582031 99.59375 L 346.542969 5.472656 L 361.707031 26.089844 L 233.746094 120.210938 Z M 218.582031 99.59375 " clip-rule="nonzero"/></clipPath><clipPath id="aafc2aaaa3"><path d="M 218.582031 99.59375 L 346.542969 5.472656 L 361.707031 26.089844 L 233.746094 120.210938 Z M 218.582031 99.59375 " clip-rule="nonzero"/></clipPath><clipPath id="98a4b333d7"><path d="M 282 64 L 290 64 L 290 75 L 282 75 Z M 282 64 " clip-rule="nonzero"/></clipPath><clipPath id="b819d537fd"><path d="M 218.582031 99.59375 L 346.542969 5.472656 L 361.707031 26.089844 L 233.746094 120.210938 Z M 218.582031 99.59375 " clip-rule="nonzero"/></clipPath><clipPath id="1669efea4b"><path d="M 218.582031 99.59375 L 346.542969 5.472656 L 361.707031 26.089844 L 233.746094 120.210938 Z M 218.582031 99.59375 " clip-rule="nonzero"/></clipPath><clipPath id="621148b412"><path d="M 291 50 L 299 50 L 299 61 L 291 61 Z M 291 50 " clip-rule="nonzero"/></clipPath><clipPath id="d9d3889260"><path d="M 218.582031 99.59375 L 346.542969 5.472656 L 361.707031 26.089844 L 233.746094 120.210938 Z M 218.582031 99.59375 " clip-rule="nonzero"/></clipPath><clipPath id="b30f32aba6"><path d="M 218.582031 99.59375 L 346.542969 5.472656 L 361.707031 26.089844 L 233.746094 120.210938 Z M 218.582031 99.59375 " clip-rule="nonzero"/></clipPath><clipPath id="dc469f413e"><path d="M 300 38 L 309 38 L 309 48 L 300 48 Z M 300 38 " clip-rule="nonzero"/></clipPath><clipPath id="15f6461de4"><path d="M 218.582031 99.59375 L 346.542969 5.472656 L 361.707031 26.089844 L 233.746094 120.210938 Z M 218.582031 99.59375 " clip-rule="nonzero"/></clipPath><clipPath id="f71db3fa0f"><path d="M 218.582031 99.59375 L 346.542969 5.472656 L 361.707031 26.089844 L 233.746094 120.210938 Z M 218.582031 99.59375 " clip-rule="nonzero"/></clipPath><clipPath id="3218933708"><path d="M 311 29 L 321 29 L 321 37 L 311 37 Z M 311 29 " clip-rule="nonzero"/></clipPath><clipPath id="5406977cf2"><path d="M 218.582031 99.59375 L 346.542969 5.472656 L 361.707031 26.089844 L 233.746094 120.210938 Z M 218.582031 99.59375 " clip-rule="nonzero"/></clipPath><clipPath id="ba98f50ae1"><path d="M 218.582031 99.59375 L 346.542969 5.472656 L 361.707031 26.089844 L 233.746094 120.210938 Z M 218.582031 99.59375 " clip-rule="nonzero"/></clipPath><clipPath id="c0ba3e238b"><path d="M 325 25 L 338 25 L 338 28 L 325 28 Z M 325 25 " clip-rule="nonzero"/></clipPath><clipPath id="831e677c81"><path d="M 218.582031 99.59375 L 346.542969 5.472656 L 361.707031 26.089844 L 233.746094 120.210938 Z M 218.582031 99.59375 " clip-rule="nonzero"/></clipPath><clipPath id="e882e8595c"><path d="M 218.582031 99.59375 L 346.542969 5.472656 L 361.707031 26.089844 L 233.746094 120.210938 Z M 218.582031 99.59375 " clip-rule="nonzero"/></clipPath><clipPath id="afe11c49cb"><path d="M 223 95 L 241 95 L 241 109 L 223 109 Z M 223 95 " clip-rule="nonzero"/></clipPath><clipPath id="c14c4a1a31"><path d="M 218.582031 99.59375 L 346.542969 5.472656 L 361.707031 26.089844 L 233.746094 120.210938 Z M 218.582031 99.59375 " clip-rule="nonzero"/></clipPath><clipPath id="92c89a33b7"><path d="M 218.582031 99.59375 L 346.542969 5.472656 L 361.707031 26.089844 L 233.746094 120.210938 Z M 218.582031 99.59375 " clip-rule="nonzero"/></clipPath><clipPath id="f9b4ccca08"><path d="M 339 16 L 358 16 L 358 30 L 339 30 Z M 339 16 " clip-rule="nonzero"/></clipPath><clipPath id="8efc552ae3"><path d="M 218.582031 99.59375 L 346.542969 5.472656 L 361.707031 26.089844 L 233.746094 120.210938 Z M 218.582031 99.59375 " clip-rule="nonzero"/></clipPath><clipPath id="d487e06233"><path d="M 218.582031 99.59375 L 346.542969 5.472656 L 361.707031 26.089844 L 233.746094 120.210938 Z M 218.582031 99.59375 " clip-rule="nonzero"/></clipPath><clipPath id="cf5db22978"><path d="M 13 55 L 304 55 L 304 370 L 13 370 Z M 13 55 " clip-rule="nonzero"/></clipPath><clipPath id="9db876d6b9"><path d="M 161.3125 23.558594 L 334.488281 131.105469 L 186.433594 369.5 L 13.261719 261.953125 Z M 161.3125 23.558594 " clip-rule="nonzero"/></clipPath><clipPath id="a6d8f5b215"><path d="M 161.3125 23.558594 L 334.488281 131.105469 L 186.433594 369.5 L 13.261719 261.953125 Z M 161.3125 23.558594 " clip-rule="nonzero"/></clipPath><clipPath id="023c7c72c1"><path d="M 58 100 L 270 100 L 270 324 L 58 324 Z M 58 100 " clip-rule="nonzero"/></clipPath><clipPath id="b3c5f9bf41"><path d="M 156.019531 100.386719 L 269.210938 173.988281 L 172.039062 323.4375 L 58.84375 249.835938 Z M 156.019531 100.386719 " clip-rule="nonzero"/></clipPath><clipPath id="f29d8f58a0"><path d="M 184.054688 13.777344 L 337.199219 113.355469 L 179.894531 355.28125 L 26.75 255.703125 Z M 184.054688 13.777344 " clip-rule="nonzero"/></clipPath><clipPath id="cdaf2fc229"><path d="M 139.609375 -15.121094 L 381.644531 142.253906 L 224.339844 384.179688 L -17.695312 226.804688 Z M 139.609375 -15.121094 " clip-rule="nonzero"/></clipPath><clipPath id="fea2694a5b"><path d="M 139.609375 -15.121094 L 381.644531 142.253906 L 224.339844 384.179688 L -17.695312 226.804688 Z M 139.609375 -15.121094 " clip-rule="nonzero"/></clipPath></defs><g clip-path="url(#8b8d3671ee)"><g clip-path="url(#9c9c6409e4)"><g clip-path="url(#b3952a14be)"><path fill="#ffffff" d="M 249.53125 98.277344 C 243.675781 99.644531 238.261719 100.054688 238.773438 100.75 C 239.21875 101.410156 245.453125 102.109375 251.34375 100.792969 C 257.28125 99.484375 260.753906 96.808594 260.261719 96.140625 C 259.707031 95.4375 255.417969 97.003906 249.53125 98.277344 Z M 249.53125 98.277344 " fill-opacity="1" fill-rule="evenodd"/></g></g></g><g clip-path="url(#e38a0ad2d0)"><g clip-path="url(#ee5c1bd5a8)"><g clip-path="url(#e6476d92eb)"><path fill="#ffffff" d="M 264.671875 91.785156 C 260.234375 94.8125 256.289062 96.957031 256.800781 97.652344 C 257.332031 98.375 262.128906 97.390625 266.566406 94.363281 C 271.042969 91.390625 273.585938 87.609375 273.074219 86.914062 C 272.542969 86.195312 269.132812 88.742188 264.671875 91.785156 Z M 264.671875 91.785156 " fill-opacity="1" fill-rule="evenodd"/></g></g></g><g clip-path="url(#786fc9c4b6)"><g clip-path="url(#80d854b9c4)"><g clip-path="url(#b17221525e)"><path fill="#ffffff" d="M 276.269531 81.070312 C 272.816406 85.277344 269.941406 88.664062 270.453125 89.359375 C 270.964844 90.054688 274.730469 87.882812 278.195312 83.746094 C 281.683594 79.589844 283.722656 75.230469 283.191406 74.511719 C 282.640625 73.761719 279.730469 76.9375 276.269531 81.070312 Z M 276.269531 81.070312 " fill-opacity="1" fill-rule="evenodd"/></g></g></g><g clip-path="url(#1ecd232feb)"><g clip-path="url(#2463cfef77)"><g clip-path="url(#ab806e60c0)"><path fill="#ffffff" d="M 285.695312 67.941406 C 282.71875 72.632812 280.503906 76.804688 281.050781 77.550781 C 281.601562 78.300781 284.664062 75.332031 287.648438 70.597656 C 290.648438 65.886719 292.59375 61.398438 292.0625 60.679688 C 291.511719 59.929688 288.679688 63.207031 285.695312 67.941406 Z M 285.695312 67.941406 " fill-opacity="1" fill-rule="evenodd"/></g></g></g><g clip-path="url(#be74d42e21)"><g clip-path="url(#0d3a654265)"><g clip-path="url(#0cdefb635f)"><path fill="#ffffff" d="M 293.558594 55.367188 C 290.554688 60.078125 288.613281 64.566406 289.144531 65.285156 C 289.691406 66.035156 292.507812 62.730469 295.511719 58.023438 C 298.511719 53.3125 300.703125 49.160156 300.152344 48.414062 C 299.640625 47.714844 296.578125 50.683594 293.558594 55.367188 Z M 293.558594 55.367188 " fill-opacity="1" fill-rule="evenodd"/></g></g></g><g clip-path="url(#e003ff7d36)"><g clip-path="url(#54ac8ea873)"><g clip-path="url(#4e7471f529)"><path fill="#ffffff" d="M 302.992188 42.195312 C 299.503906 46.347656 297.464844 50.707031 297.996094 51.429688 C 298.5625 52.203125 301.472656 49.027344 304.945312 44.847656 C 308.414062 40.667969 311.289062 37.285156 310.777344 36.585938 C 310.265625 35.890625 306.5 38.066406 302.992188 42.195312 Z M 302.992188 42.195312 " fill-opacity="1" fill-rule="evenodd"/></g></g></g><g clip-path="url(#a5e116a655)"><g clip-path="url(#51daaf0a52)"><g clip-path="url(#677ac23f00)"><path fill="#ffffff" d="M 314.683594 31.609375 C 310.207031 34.582031 307.644531 38.335938 308.175781 39.054688 C 308.742188 39.828125 312.140625 37.210938 316.597656 34.210938 C 321.015625 31.160156 324.976562 29.039062 324.464844 28.34375 C 323.9375 27.621094 319.121094 28.582031 314.683594 31.609375 Z M 314.683594 31.609375 " fill-opacity="1" fill-rule="evenodd"/></g></g></g><g clip-path="url(#a1a62d3187)"><g clip-path="url(#f1a24571a3)"><g clip-path="url(#12aad93457)"><path fill="#ffffff" d="M 329.90625 25.175781 C 323.96875 26.488281 320.492188 29.160156 320.988281 29.832031 C 321.535156 30.578125 325.84375 29.039062 331.71875 27.695312 C 337.574219 26.328125 342.988281 25.917969 342.476562 25.222656 C 341.984375 24.554688 335.777344 23.835938 329.90625 25.175781 Z M 329.90625 25.175781 " fill-opacity="1" fill-rule="evenodd"/></g></g></g><g clip-path="url(#f1693fc9a0)"><g clip-path="url(#68f32d08d2)"><g clip-path="url(#1904486c7b)"><path fill="#ffffff" d="M 248.523438 99.375 C 245.054688 100.019531 241.960938 100.3125 242.09375 100.492188 C 242.226562 100.671875 245.480469 100.699219 248.980469 99.992188 C 252.511719 99.378906 254.925781 98.320312 254.8125 98.164062 C 254.679688 97.984375 252.039062 98.734375 248.523438 99.375 Z M 248.523438 99.375 " fill-opacity="1" fill-rule="evenodd"/></g></g></g><g clip-path="url(#246c8fb88a)"><g clip-path="url(#da1081dde5)"><g clip-path="url(#babca88c84)"><path fill="#ffffff" d="M 264.554688 93.023438 C 261.960938 94.695312 259.679688 95.933594 259.8125 96.117188 C 259.945312 96.296875 262.40625 95.355469 265.027344 93.667969 C 267.667969 92.003906 269.445312 90.179688 269.328125 90.027344 C 269.199219 89.847656 267.203125 91.3125 264.554688 93.023438 Z M 264.554688 93.023438 " fill-opacity="1" fill-rule="evenodd"/></g></g></g><g clip-path="url(#7437b96deb)"><g clip-path="url(#83270101bc)"><g clip-path="url(#aafc2aaaa3)"><path fill="#ffffff" d="M 276.867188 81.941406 C 274.871094 84.320312 273.171875 86.246094 273.304688 86.425781 C 273.4375 86.605469 275.320312 84.984375 277.339844 82.585938 C 279.355469 80.230469 280.761719 77.964844 280.628906 77.78125 C 280.496094 77.601562 278.886719 79.542969 276.867188 81.941406 Z M 276.867188 81.941406 " fill-opacity="1" fill-rule="evenodd"/></g></g></g><g clip-path="url(#98a4b333d7)"><g clip-path="url(#b819d537fd)"><g clip-path="url(#1669efea4b)"><path fill="#ffffff" d="M 285.960938 69.375 C 284.210938 72.089844 282.847656 74.363281 282.960938 74.519531 C 283.09375 74.699219 284.667969 72.710938 286.414062 69.992188 C 288.164062 67.277344 289.40625 64.894531 289.292969 64.738281 C 289.132812 64.578125 287.664062 66.652344 285.960938 69.375 Z M 285.960938 69.375 " fill-opacity="1" fill-rule="evenodd"/></g></g></g><g clip-path="url(#621148b412)"><g clip-path="url(#d9d3889260)"><g clip-path="url(#b30f32aba6)"><path fill="#ffffff" d="M 294.664062 55.425781 C 292.941406 58.125 291.675781 60.527344 291.789062 60.679688 C 291.921875 60.859375 293.390625 58.785156 295.140625 56.070312 C 296.863281 53.375 298.25 51.082031 298.136719 50.925781 C 298.003906 50.746094 296.441406 52.691406 294.664062 55.425781 Z M 294.664062 55.425781 " fill-opacity="1" fill-rule="evenodd"/></g></g></g><g clip-path="url(#dc469f413e)"><g clip-path="url(#15f6461de4)"><g clip-path="url(#f71db3fa0f)"><path fill="#ffffff" d="M 304.246094 42.34375 C 302.230469 44.699219 300.804688 46.941406 300.9375 47.121094 C 301.070312 47.300781 302.699219 45.386719 304.738281 43.015625 C 306.753906 40.660156 308.46875 38.761719 308.335938 38.578125 C 308.203125 38.398438 306.277344 40.015625 304.246094 42.34375 Z M 304.246094 42.34375 " fill-opacity="1" fill-rule="evenodd"/></g></g></g><g clip-path="url(#3218933708)"><g clip-path="url(#5406977cf2)"><g clip-path="url(#ba98f50ae1)"><path fill="#ffffff" d="M 315.269531 32.40625 C 312.695312 34.105469 310.917969 35.925781 311.050781 36.105469 C 311.183594 36.285156 313.160156 34.792969 315.746094 33.050781 C 318.285156 31.304688 320.546875 30.035156 320.414062 29.855469 C 320.300781 29.703125 317.828125 30.683594 315.269531 32.40625 Z M 315.269531 32.40625 " fill-opacity="1" fill-rule="evenodd"/></g></g></g><g clip-path="url(#c0ba3e238b)"><g clip-path="url(#831e677c81)"><g clip-path="url(#e882e8595c)"><path fill="#ffffff" d="M 330.875 25.855469 C 327.445312 26.550781 325.070312 27.664062 325.183594 27.816406 C 325.335938 28.023438 327.894531 27.214844 331.332031 26.472656 C 334.769531 25.730469 337.78125 25.378906 337.648438 25.199219 C 337.515625 25.019531 334.359375 25.121094 330.875 25.855469 Z M 330.875 25.855469 " fill-opacity="1" fill-rule="evenodd"/></g></g></g><g clip-path="url(#afe11c49cb)"><g clip-path="url(#c14c4a1a31)"><g clip-path="url(#92c89a33b7)"><path fill="#ffffff" d="M 224.980469 107.996094 L 229.9375 105.300781 L 224.601562 107.160156 L 229.722656 104.742188 L 224.269531 106.332031 L 229.492188 104.160156 L 223.988281 105.46875 L 229.328125 103.566406 L 223.730469 104.585938 L 229.1875 102.996094 L 223.539062 103.734375 L 229.050781 102.378906 L 223.398438 102.84375 L 228.933594 101.792969 L 223.28125 101.9375 L 228.886719 101.191406 L 223.210938 101.035156 L 228.902344 100.625 L 223.210938 100.125 L 228.898438 100.03125 L 223.253906 99.21875 L 228.921875 99.417969 L 223.335938 98.363281 L 229.015625 98.792969 L 223.492188 97.453125 L 229.101562 98.214844 L 223.671875 96.566406 L 229.257812 97.621094 L 223.890625 95.691406 L 240.523438 99.699219 L 240.289062 100.507812 L 240.265625 100.527344 L 240.28125 100.550781 L 240.277344 100.597656 L 240.296875 100.621094 L 240.761719 101.46875 L 225.382812 108.8125 L 230.203125 105.820312 Z M 224.980469 107.996094 " fill-opacity="1" fill-rule="evenodd"/></g></g></g><g clip-path="url(#f9b4ccca08)"><g clip-path="url(#8efc552ae3)"><g clip-path="url(#d487e06233)"><path fill="#ffffff" d="M 355.308594 17.6875 L 350.328125 20.402344 L 355.6875 18.523438 L 350.585938 20.96875 L 356 19.324219 L 350.773438 21.542969 L 356.28125 20.191406 L 350.960938 22.121094 L 356.539062 21.074219 L 351.085938 22.664062 L 356.726562 21.96875 L 351.21875 23.277344 L 356.867188 22.859375 L 351.339844 23.867188 L 357.007812 23.75 L 351.386719 24.46875 L 357.058594 24.625 L 351.386719 25.0625 L 357.058594 25.535156 L 351.410156 25.679688 L 357.015625 26.441406 L 351.34375 26.285156 L 356.929688 27.339844 L 351.277344 26.890625 L 356.796875 28.230469 L 351.164062 27.492188 L 356.617188 29.117188 L 351.050781 28.089844 L 356.398438 29.996094 L 339.746094 25.960938 L 339.980469 25.152344 L 340.007812 25.132812 L 339.988281 25.109375 L 339.96875 25.082031 L 339.527344 24.214844 L 354.90625 16.875 L 350.070312 19.835938 Z M 355.308594 17.6875 " fill-opacity="1" fill-rule="evenodd"/></g></g></g><g clip-path="url(#cf5db22978)"><g clip-path="url(#9db876d6b9)"><g clip-path="url(#a6d8f5b215)"><path fill="#ffffff" d="M 186.445312 369.488281 L 13.269531 261.941406 L 129.863281 74.199219 L 212.023438 55.078125 L 283.753906 99.625 L 303.035156 181.746094 Z M 18.769531 260.660156 L 185.152344 363.988281 L 298.769531 181.042969 L 280.242188 102.144531 L 211.324219 59.339844 L 132.386719 77.710938 Z M 225.957031 112.664062 C 225.246094 112.21875 224.578125 111.710938 223.964844 111.136719 C 223.351562 110.5625 222.796875 109.933594 222.308594 109.25 C 221.816406 108.566406 221.398438 107.84375 221.050781 107.078125 C 220.703125 106.3125 220.433594 105.519531 220.238281 104.703125 C 220.046875 103.886719 219.9375 103.054688 219.910156 102.21875 C 219.878906 101.378906 219.933594 100.542969 220.070312 99.714844 C 220.203125 98.886719 220.421875 98.078125 220.714844 97.292969 C 221.011719 96.507812 221.378906 95.757812 221.820312 95.042969 C 222.265625 94.332031 222.773438 93.667969 223.347656 93.054688 C 223.921875 92.441406 224.550781 91.890625 225.230469 91.402344 C 225.914062 90.914062 226.636719 90.496094 227.402344 90.148438 C 228.167969 89.804688 228.960938 89.535156 229.777344 89.34375 C 230.597656 89.152344 231.425781 89.046875 232.265625 89.019531 C 233.105469 88.992188 233.941406 89.046875 234.769531 89.183594 C 235.601562 89.320312 236.410156 89.535156 237.195312 89.832031 C 237.984375 90.128906 238.734375 90.5 239.449219 90.941406 C 240.164062 91.386719 240.828125 91.894531 241.441406 92.46875 C 242.058594 93.042969 242.609375 93.671875 243.101562 94.355469 C 243.589844 95.039062 244.007812 95.761719 244.359375 96.527344 C 244.707031 97.292969 244.976562 98.085938 245.167969 98.902344 C 245.359375 99.71875 245.46875 100.550781 245.5 101.390625 C 245.527344 102.226562 245.472656 103.0625 245.335938 103.890625 C 245.203125 104.71875 244.988281 105.527344 244.691406 106.3125 C 244.398438 107.097656 244.027344 107.847656 243.585938 108.5625 C 243.140625 109.273438 242.632812 109.9375 242.058594 110.546875 C 241.484375 111.160156 240.855469 111.710938 240.171875 112.199219 C 239.492188 112.6875 238.765625 113.105469 238 113.449219 C 237.238281 113.796875 236.445312 114.066406 235.625 114.253906 C 234.808594 114.445312 233.980469 114.554688 233.140625 114.582031 C 232.300781 114.609375 231.464844 114.554688 230.636719 114.417969 C 229.808594 114.28125 229 114.066406 228.210938 113.769531 C 227.425781 113.476562 226.671875 113.105469 225.957031 112.664062 Z M 237.34375 94.332031 C 236.851562 94.027344 236.335938 93.769531 235.792969 93.566406 C 235.253906 93.363281 234.695312 93.214844 234.125 93.121094 C 233.554688 93.027344 232.980469 92.988281 232.402344 93.007812 C 231.824219 93.027344 231.253906 93.101562 230.691406 93.230469 C 230.128906 93.363281 229.582031 93.546875 229.058594 93.785156 C 228.53125 94.023438 228.03125 94.3125 227.5625 94.648438 C 227.09375 94.984375 226.660156 95.363281 226.265625 95.785156 C 225.871094 96.207031 225.523438 96.664062 225.21875 97.152344 C 224.914062 97.644531 224.660156 98.160156 224.457031 98.699219 C 224.253906 99.242188 224.105469 99.796875 224.011719 100.367188 C 223.917969 100.9375 223.882812 101.507812 223.902344 102.085938 C 223.921875 102.664062 223.996094 103.234375 224.128906 103.796875 C 224.261719 104.359375 224.445312 104.90625 224.6875 105.429688 C 224.925781 105.957031 225.214844 106.457031 225.550781 106.925781 C 225.890625 107.394531 226.269531 107.828125 226.691406 108.222656 C 227.113281 108.617188 227.570312 108.96875 228.0625 109.273438 C 228.554688 109.578125 229.070312 109.832031 229.613281 110.035156 C 230.152344 110.242188 230.710938 110.390625 231.28125 110.484375 C 231.851562 110.578125 232.425781 110.617188 233.003906 110.597656 C 233.582031 110.578125 234.152344 110.503906 234.714844 110.375 C 235.277344 110.242188 235.824219 110.058594 236.347656 109.820312 C 236.875 109.582031 237.375 109.292969 237.84375 108.957031 C 238.3125 108.621094 238.746094 108.242188 239.140625 107.820312 C 239.535156 107.398438 239.882812 106.941406 240.1875 106.453125 C 240.492188 105.960938 240.746094 105.445312 240.949219 104.90625 C 241.152344 104.363281 241.300781 103.808594 241.390625 103.238281 C 241.484375 102.667969 241.523438 102.097656 241.503906 101.519531 C 241.484375 100.941406 241.40625 100.371094 241.273438 99.808594 C 241.140625 99.246094 240.957031 98.699219 240.71875 98.175781 C 240.476562 97.648438 240.191406 97.148438 239.851562 96.679688 C 239.515625 96.210938 239.136719 95.777344 238.714844 95.382812 C 238.292969 94.988281 237.835938 94.636719 237.34375 94.332031 Z M 237.34375 94.332031 " fill-opacity="1" fill-rule="nonzero"/></g></g></g><g clip-path="url(#023c7c72c1)"><g clip-path="url(#b3c5f9bf41)"><g clip-path="url(#f29d8f58a0)"><g clip-path="url(#cdaf2fc229)"><g clip-path="url(#fea2694a5b)"><path fill="#ffffff" d="M 260.617188 63.554688 C 248.367188 55.589844 232.179688 59.273438 223.273438 71.019531 L 213.664062 64.769531 C 211.445312 63.328125 208.617188 63.152344 206.496094 63.785156 C 204.375 64.421875 202.757812 65.59375 201.378906 66.816406 L 195.671875 71.886719 L 172.421875 56.769531 C 166.136719 52.683594 157.648438 54.761719 153.546875 61.066406 L 34.492188 244.171875 C 30.390625 250.476562 31.941406 259.066406 38.226562 263.152344 L 168.417969 347.804688 C 174.703125 351.894531 183.183594 349.828125 187.285156 343.519531 L 306.339844 160.417969 C 310.441406 154.109375 308.898438 145.511719 302.613281 141.421875 L 279.363281 126.304688 L 281.679688 119.03125 C 282.242188 117.273438 282.65625 115.320312 282.375 113.125 C 282.097656 110.929688 280.785156 108.414062 278.566406 106.972656 L 268.957031 100.726562 C 276.082031 87.820312 272.871094 71.523438 260.617188 63.554688 Z M 255.980469 70.679688 C 264.804688 76.414062 267.199219 88.5625 261.050781 98.019531 C 260.71875 98.519531 260.351562 99.003906 259.976562 99.476562 C 259.234375 100.417969 258.921875 101.625 259.117188 102.808594 C 259.308594 103.988281 259.992188 105.03125 260.996094 105.6875 L 273.933594 114.097656 C 273.933594 114.101562 273.933594 114.097656 273.9375 114.101562 C 273.9375 114.125 273.9375 114.152344 273.941406 114.195312 C 273.984375 114.515625 273.90625 115.410156 273.574219 116.445312 L 270.339844 126.597656 C 270.285156 126.738281 270.238281 126.882812 270.203125 127.027344 L 264.976562 143.414062 C 264.539062 143.417969 263.734375 143.277344 263.257812 142.964844 L 186.964844 93.359375 C 186.480469 93.046875 186.023438 92.367188 185.855469 91.96875 L 198.90625 80.386719 C 198.945312 80.351562 198.984375 80.316406 199.027344 80.28125 L 207.027344 73.175781 C 207.84375 72.457031 208.625 72.019531 208.9375 71.925781 C 208.976562 71.914062 209.007812 71.902344 209.027344 71.894531 C 209.027344 71.894531 209.027344 71.894531 209.03125 71.898438 L 221.96875 80.308594 C 222.972656 80.964844 224.210938 81.164062 225.371094 80.859375 C 226.53125 80.554688 227.507812 79.773438 228.0625 78.707031 C 228.351562 78.15625 228.644531 77.636719 228.953125 77.148438 C 235.101562 67.691406 247.164062 64.945312 255.980469 70.679688 Z M 250.921875 78.46875 C 245.398438 74.878906 237.953125 76.699219 234.371094 82.210938 C 230.789062 87.722656 232.132812 95.277344 237.65625 98.867188 C 243.179688 102.460938 250.644531 100.632812 254.226562 95.121094 C 257.808594 89.609375 256.445312 82.058594 250.921875 78.46875 Z M 246.285156 85.59375 C 247.789062 86.570312 248.269531 88.660156 247.085938 90.480469 C 245.90625 92.296875 243.800781 92.707031 242.296875 91.730469 C 240.796875 90.753906 240.316406 88.664062 241.5 86.847656 C 242.683594 85.027344 244.785156 84.621094 246.285156 85.59375 Z M 167.777344 63.90625 L 189.070312 77.753906 L 179.710938 86.066406 C 177.1875 88.308594 176.863281 91.933594 177.667969 94.453125 C 178.476562 96.972656 180.082031 99.023438 182.332031 100.488281 L 258.621094 150.09375 C 260.871094 151.554688 263.414062 152.199219 266.042969 151.914062 C 268.671875 151.628906 271.851562 149.863281 272.878906 146.644531 L 276.679688 134.71875 L 297.972656 148.5625 C 300.265625 150.054688 300.933594 153.140625 299.214844 155.78125 L 180.15625 338.886719 C 178.4375 341.527344 175.347656 342.171875 173.054688 340.679688 L 42.859375 256.023438 C 40.566406 254.53125 39.898438 251.449219 41.617188 248.804688 L 160.675781 65.703125 C 162.394531 63.058594 165.484375 62.417969 167.777344 63.90625 Z M 177.898438 126.425781 C 176.9375 125.792969 175.761719 125.574219 174.640625 125.820312 L 159.9375 128.730469 L 158.402344 121.992188 C 158.085938 120.484375 156.980469 119.265625 155.511719 118.800781 C 154.042969 118.339844 152.4375 118.710938 151.320312 119.765625 C 150.199219 120.824219 149.738281 122.402344 150.113281 123.898438 L 152.574219 134.648438 C 152.8125 135.6875 153.429688 136.597656 154.304688 137.203125 C 155.25 137.855469 156.414062 138.097656 157.542969 137.878906 L 176.28125 134.164062 C 178 133.867188 179.359375 132.546875 179.714844 130.84375 C 180.070312 129.136719 179.351562 127.386719 177.898438 126.425781 Z M 184.507812 146.699219 C 183.226562 145.828125 181.574219 145.71875 180.191406 146.417969 C 178.808594 147.117188 177.914062 148.511719 177.859375 150.058594 C 177.804688 151.605469 178.59375 153.0625 179.921875 153.863281 L 242.976562 194.859375 C 244.25 195.753906 245.910156 195.882812 247.304688 195.195312 C 248.699219 194.503906 249.605469 193.109375 249.671875 191.554688 C 249.734375 190 248.945312 188.535156 247.609375 187.734375 L 184.554688 146.734375 C 184.539062 146.722656 184.523438 146.710938 184.507812 146.699219 Z M 155.332031 161.128906 C 154.375 160.492188 153.199219 160.277344 152.078125 160.523438 L 137.371094 163.433594 L 135.835938 156.695312 C 135.519531 155.1875 134.417969 153.96875 132.949219 153.507812 C 131.476562 153.046875 129.875 153.414062 128.753906 154.472656 C 127.636719 155.527344 127.171875 157.105469 127.546875 158.601562 L 130.007812 169.351562 C 130.246094 170.390625 130.863281 171.300781 131.742188 171.90625 C 132.683594 172.558594 133.851562 172.800781 134.976562 172.582031 L 153.71875 168.867188 C 155.433594 168.570312 156.792969 167.253906 157.148438 165.546875 C 157.507812 163.839844 156.785156 162.089844 155.332031 161.128906 Z M 161.945312 181.40625 C 160.664062 180.53125 159.011719 180.421875 157.628906 181.121094 C 156.246094 181.820312 155.351562 183.214844 155.292969 184.761719 C 155.238281 186.308594 156.027344 187.765625 157.355469 188.5625 L 220.410156 229.5625 C 221.683594 230.460938 223.34375 230.589844 224.742188 229.898438 C 226.136719 229.210938 227.042969 227.8125 227.109375 226.257812 C 227.171875 224.703125 226.378906 223.238281 225.046875 222.4375 L 161.992188 181.4375 C 161.976562 181.425781 161.960938 181.417969 161.945312 181.40625 Z M 132.765625 195.832031 C 131.808594 195.199219 130.632812 194.980469 129.511719 195.226562 L 114.816406 198.125 L 113.273438 191.398438 C 112.960938 189.890625 111.851562 188.667969 110.382812 188.207031 C 108.914062 187.742188 107.308594 188.113281 106.1875 189.171875 C 105.066406 190.230469 104.605469 191.808594 104.984375 193.304688 L 107.445312 204.054688 C 107.679688 205.09375 108.296875 206.003906 109.175781 206.609375 C 110.121094 207.261719 111.292969 207.5 112.417969 207.273438 L 131.152344 203.570312 C 132.867188 203.273438 134.226562 201.957031 134.585938 200.25 C 134.941406 198.542969 134.222656 196.792969 132.765625 195.832031 Z M 139.378906 216.105469 C 138.097656 215.234375 136.445312 215.125 135.0625 215.824219 C 133.679688 216.523438 132.785156 217.917969 132.730469 219.464844 C 132.671875 221.011719 133.460938 222.46875 134.792969 223.269531 L 197.847656 264.265625 C 199.117188 265.160156 200.78125 265.289062 202.175781 264.601562 C 203.570312 263.910156 204.476562 262.515625 204.539062 260.960938 C 204.605469 259.40625 203.8125 257.941406 202.480469 257.140625 L 139.425781 216.140625 C 139.410156 216.128906 139.394531 216.121094 139.378906 216.105469 Z M 110.203125 230.535156 C 109.242188 229.902344 108.070312 229.683594 106.945312 229.929688 L 92.25 232.828125 L 90.707031 226.101562 C 90.394531 224.59375 89.289062 223.371094 87.816406 222.910156 C 86.347656 222.445312 84.742188 222.816406 83.625 223.875 C 82.503906 224.933594 82.042969 226.511719 82.417969 228.007812 L 84.878906 238.757812 C 85.117188 239.796875 85.734375 240.710938 86.609375 241.316406 C 87.558594 241.964844 88.726562 242.203125 89.855469 241.976562 L 108.585938 238.273438 C 110.304688 237.976562 111.664062 236.660156 112.019531 234.953125 C 112.378906 233.246094 111.65625 231.496094 110.203125 230.535156 Z M 116.871094 250.832031 C 114.898438 249.546875 112.257812 250.109375 110.976562 252.082031 C 109.695312 254.050781 110.253906 256.6875 112.226562 257.972656 L 175.28125 298.972656 C 177.253906 300.253906 179.890625 299.695312 181.171875 297.722656 C 182.453125 295.75 181.894531 293.113281 179.925781 291.832031 Z M 116.871094 250.832031 " fill-opacity="1" fill-rule="nonzero"/></g></g></g></g></g></svg>